<svg xmlns="http://www.w3.org/2000/svg" viewBox="0 0 200 200"><defs><style>.cls-1{fill:#fff;}.cls-2{fill:#f0f;}.cls-3{fill:blue;}.cls-4,.cls-5,.cls-6{fill:none;stroke-miterlimit:10;}.cls-4{stroke:#000;}.cls-5{stroke:lime;}.cls-6{stroke:red;}</style></defs><title>Asset 13</title><g id="Layer_2" data-name="Layer 2"><g id="Layer_1-2" data-name="Layer 1"><rect class="cls-1" width="200" height="200"/><rect class="cls-2" x="93.5" y="149.5" width="1" height="1"/><polygon class="cls-3" points="20 137 57 177 0 200 20 137"/><polygon class="cls-3" points="57 177 139 177 112 200 57 177"/><polygon class="cls-3" points="200 200 139 177 179 121 200 200"/><polygon class="cls-3" points="179 121 158 38 200 91 179 121"/><polygon class="cls-3" points="158 38 108 14 200 0 158 38"/><polygon class="cls-3" points="108 14 34 43 0 0 108 14"/><polygon class="cls-3" points="34 43 14 98 0 48 34 43"/><polygon class="cls-3" points="14 98 20 137 0 140 14 98"/><polygon class="cls-3" points="0 48 0 0 34 43 0 48"/><polygon class="cls-3" points="20 137 0 140 0 200 20 137"/><polygon class="cls-3" points="57 177 112 200 0 200 57 177"/><polygon class="cls-3" points="158 38 200 0 200 91 158 38"/><polygon class="cls-3" points="179 121 200 91 200 200 179 121"/><polygon class="cls-3" points="112 200 139 177 200 200 112 200"/><polygon class="cls-3" points="14 98 0 48 0 140 14 98"/><polygon class="cls-3" points="108 14 0 0 200 0 108 14"/><polygon class="cls-3" points="80 57 121 120 130 71 80 57"/><polygon class="cls-3" points="62 68 121 120 80 57 62 68"/><polygon class="cls-3" points="62 68 57 93 121 120 62 68"/><polygon class="cls-3" points="57 93 67 118 94 127 57 93"/><polygon class="cls-3" points="57 93 94 127 121 120 57 93"/><line class="cls-4" x1="34" y1="43" x2="108" y2="14"/><line class="cls-4" x1="108" y1="14" x2="158" y2="38"/><line class="cls-5" x1="130" y1="71" x2="80" y2="57"/><line class="cls-4" x1="80" y1="57" x2="62" y2="68"/><line class="cls-4" x1="62" y1="68" x2="57" y2="93"/><line class="cls-4" x1="57" y1="93" x2="67" y2="118"/><line class="cls-4" x1="67" y1="118" x2="94" y2="127"/><line class="cls-4" x1="94" y1="127" x2="121" y2="120"/><line class="cls-4" x1="179" y1="121" x2="139" y2="177"/><line class="cls-4" x1="139" y1="177" x2="113" y2="177"/><line class="cls-4" x1="81" y1="177" x2="57" y2="177"/><line class="cls-4" x1="57" y1="177" x2="20" y2="137"/><line class="cls-4" x1="20" y1="137" x2="14" y2="98"/><line class="cls-5" x1="14" y1="98" x2="34" y2="43"/><line class="cls-6" x1="113" y1="177" x2="81" y2="177"/><line class="cls-5" x1="158" y1="38" x2="179" y2="121"/><line class="cls-4" x1="121" y1="120" x2="130" y2="71"/></g></g></svg>