<svg xmlns="http://www.w3.org/2000/svg" viewBox="0 0 404 383"><defs><style>.cls-1{fill:#fff;}.cls-2{fill:#f0f;}.cls-3{fill:blue;}.cls-4,.cls-5,.cls-6{fill:none;stroke-miterlimit:10;}.cls-4{stroke:red;}.cls-5{stroke:lime;}.cls-6{stroke:#000;}</style></defs><title>Asset 12</title><g id="Layer_2" data-name="Layer 2"><g id="Layer_1-2" data-name="Layer 1"><rect class="cls-1" width="404" height="383"/><rect class="cls-2" x="211.5" y="277.5" width="1" height="1"/><polygon class="cls-3" points="0 0 34 75 100 57 0 0"/><polygon class="cls-3" points="161 23 99 123 173 125 161 23"/><polygon class="cls-3" points="100 57 99 123 161 23 100 57"/><polygon class="cls-3" points="0 0 100 57 161 23 0 0"/><polygon class="cls-3" points="0 0 161 23 258 15 0 0"/><polygon class="cls-3" points="258 15 252 122 311 118 258 15"/><polygon class="cls-3" points="258 15 311 118 308 39 258 15"/><polygon class="cls-3" points="308 39 404 0 360 48 308 39"/><polygon class="cls-3" points="258 15 308 39 404 0 258 15"/><polygon class="cls-3" points="0 0 258 15 404 0 0 0"/><polygon class="cls-3" points="99 196 93 302 162 207 99 196"/><polygon class="cls-3" points="93 302 162 207 148 361 93 302"/><polygon class="cls-3" points="256 212 274 357 320 209 256 212"/><polygon class="cls-3" points="323 271 274 357 320 209 323 271"/><polygon class="cls-3" points="367 267 323 271 404 383 367 267"/><polygon class="cls-3" points="323 271 274 357 404 383 323 271"/><polygon class="cls-3" points="148 361 404 383 274 357 148 361"/><polygon class="cls-3" points="148 361 0 383 404 383 148 361"/><polygon class="cls-3" points="0 383 148 361 93 302 0 383"/><polygon class="cls-3" points="37 302 0 383 93 302 37 302"/><polygon class="cls-3" points="21 196 0 383 37 302 21 196"/><polygon class="cls-3" points="0 0 21 196 34 75 0 0"/><polygon class="cls-3" points="0 0 0 383 21 196 0 0"/><polygon class="cls-3" points="404 171 367 267 404 383 404 171"/><polygon class="cls-3" points="384 138 404 171 367 267 384 138"/><polygon class="cls-3" points="384 138 404 171 404 0 384 138"/><polygon class="cls-3" points="360 48 384 138 404 0 360 48"/><line class="cls-4" x1="320" y1="209" x2="256" y2="212"/><line class="cls-5" x1="367" y1="267" x2="323" y2="271"/><line class="cls-5" x1="93" y1="302" x2="37" y2="302"/><line class="cls-6" x1="161" y1="23" x2="258" y2="15"/><line class="cls-6" x1="258" y1="15" x2="252" y2="122"/><line class="cls-6" x1="252" y1="122" x2="311" y2="118"/><line class="cls-6" x1="311" y1="118" x2="308" y2="39"/><line class="cls-6" x1="308" y1="39" x2="360" y2="48"/><line class="cls-6" x1="360" y1="48" x2="384" y2="138"/><line class="cls-6" x1="384" y1="138" x2="367" y2="267"/><line class="cls-6" x1="323" y1="271" x2="320" y2="209"/><line class="cls-6" x1="256" y1="212" x2="274" y2="357"/><line class="cls-6" x1="274" y1="357" x2="148" y2="361"/><line class="cls-6" x1="148" y1="361" x2="162" y2="207"/><line class="cls-6" x1="162" y1="207" x2="99" y2="196"/><line class="cls-6" x1="99" y1="196" x2="93" y2="302"/><line class="cls-6" x1="37" y1="302" x2="21" y2="196"/><line class="cls-6" x1="21" y1="196" x2="34" y2="75"/><line class="cls-6" x1="34" y1="75" x2="100" y2="57"/><line class="cls-6" x1="100" y1="57" x2="99" y2="123"/><line class="cls-6" x1="99" y1="123" x2="173" y2="125"/><line class="cls-6" x1="173" y1="125" x2="161" y2="23"/></g></g></svg>