<svg xmlns="http://www.w3.org/2000/svg" viewBox="0 0 200 394"><defs><style>.cls-1{fill:#fff;}.cls-2{fill:#f0f;}.cls-3{fill:blue;}.cls-4,.cls-5,.cls-6{fill:none;stroke-miterlimit:10;}.cls-4{stroke:#000;}.cls-5{stroke:lime;}.cls-6{stroke:red;}</style></defs><title>map2</title><g id="Layer_2" data-name="Layer 2"><g id="Layer_1-2" data-name="Layer 1"><rect class="cls-1" width="200" height="394"/><rect class="cls-2" x="79.5" y="27.5" width="1" height="1"/><polygon class="cls-3" points="0 0 10 45 66 12 0 0"/><polygon class="cls-3" points="78 14 115 26 200 0 78 14"/><polygon class="cls-3" points="115 26 78 63 200 33 115 26"/><polygon class="cls-3" points="18 78 107 109 0 169 18 78"/><polygon class="cls-3" points="80 74 200 92 164 110 80 74"/><polygon class="cls-3" points="157 128 72 171 200 170 157 128"/><polygon class="cls-3" points="107 109 0 169 15 190 107 109"/><polygon class="cls-3" points="32 197 125 219 90 265 32 197"/><polygon class="cls-3" points="151 198 200 228 149 283 151 198"/><polygon class="cls-3" points="90 265 32 306 0 247 90 265"/><polygon class="cls-3" points="32 306 38 358 0 394 32 306"/><polygon class="cls-3" points="38 358 97 380 0 394 38 358"/><polygon class="cls-3" points="97 380 166 350 200 394 97 380"/><polygon class="cls-3" points="166 350 149 283 200 311 166 350"/><polygon class="cls-3" points="0 394 97 380 200 394 0 394"/><polygon class="cls-3" points="0 247 32 306 0 394 0 247"/><polygon class="cls-3" points="90 265 32 197 0 247 90 265"/><polygon class="cls-3" points="200 228 149 283 200 311 200 228"/><polygon class="cls-3" points="166 350 200 311 200 394 166 350"/><polygon class="cls-3" points="90 303 63 326 111 342 90 303"/><polygon class="cls-3" points="77 300 63 326 90 303 77 300"/><polygon class="cls-3" points="108 290 77 300 90 303 108 290"/><polygon class="cls-3" points="111 342 108 290 90 303 111 342"/><polygon class="cls-3" points="32 197 15 190 0 247 32 197"/><polygon class="cls-3" points="0 169 15 190 0 247 0 169"/><polygon class="cls-3" points="72 171 151 198 200 170 72 171"/><polygon class="cls-3" points="151 198 200 228 200 170 151 198"/><polygon class="cls-3" points="10 45 18 78 0 67 10 45"/><polygon class="cls-3" points="0 67 18 78 0 169 0 67"/><polygon class="cls-3" points="164 110 157 128 200 170 164 110"/><polygon class="cls-3" points="78 63 80 74 200 33 78 63"/><polygon class="cls-3" points="200 92 200 33 80 74 200 92"/><polygon class="cls-3" points="66 12 78 14 80 0 66 12"/><polygon class="cls-3" points="0 0 10 45 0 67 0 0"/><polygon class="cls-3" points="66 12 80 0 0 0 66 12"/><polygon class="cls-3" points="78 14 80 0 200 0 78 14"/><polygon class="cls-3" points="164 110 200 170 200 92 164 110"/><polygon class="cls-3" points="115 26 200 0 200 33 115 26"/><line class="cls-4" x1="10" y1="45" x2="66" y2="12"/><line class="cls-4" x1="66" y1="12" x2="78" y2="14"/><line class="cls-4" x1="78" y1="14" x2="115" y2="26"/><line class="cls-4" x1="115" y1="26" x2="78" y2="63"/><line class="cls-4" x1="78" y1="63" x2="80" y2="74"/><line class="cls-5" x1="80" y1="74" x2="164" y2="110"/><line class="cls-4" x1="164" y1="110" x2="157" y2="128"/><line class="cls-4" x1="157" y1="128" x2="72" y2="171"/><line class="cls-5" x1="72" y1="171" x2="151" y2="198"/><line class="cls-4" x1="151" y1="198" x2="149" y2="283"/><line class="cls-4" x1="149" y1="283" x2="166" y2="350"/><line class="cls-4" x1="166" y1="350" x2="97" y2="380"/><line class="cls-6" x1="97" y1="380" x2="38" y2="358"/><line class="cls-4" x1="38" y1="358" x2="32" y2="306"/><line class="cls-4" x1="32" y1="306" x2="90" y2="265"/><line class="cls-4" x1="90" y1="265" x2="125" y2="219"/><line class="cls-4" x1="125" y1="219" x2="32" y2="197"/><line class="cls-4" x1="32" y1="197" x2="15" y2="190"/><line class="cls-5" x1="15" y1="190" x2="107" y2="109"/><line class="cls-4" x1="107" y1="109" x2="18" y2="78"/><line class="cls-4" x1="18" y1="78" x2="10" y2="45"/><line class="cls-4" x1="63" y1="326" x2="111" y2="342"/><line class="cls-4" x1="111" y1="342" x2="108" y2="290"/><line class="cls-5" x1="108" y1="290" x2="77" y2="300"/><line class="cls-4" x1="77" y1="300" x2="63" y2="326"/></g></g></svg>