<svg xmlns="http://www.w3.org/2000/svg" viewBox="0 0 143 133"><defs><style>.cls-1{fill:#fff;}.cls-2{fill:#f0f;}.cls-3{fill:blue;}.cls-4,.cls-5,.cls-6{fill:none;stroke-miterlimit:10;}.cls-4{stroke:#000;}.cls-5{stroke:red;}.cls-6{stroke:lime;}</style></defs><title>map4</title><g id="Layer_2" data-name="Layer 2"><g id="Layer_1-2" data-name="Layer 1"><rect class="cls-1" width="143" height="133"/><rect class="cls-2" x="58.5" y="58.5" width="1" height="1"/><polygon class="cls-3" points="63 49 75 70 95 45 63 49"/><polygon class="cls-3" points="85 75 107 47 119 77 85 75"/><polygon class="cls-3" points="83 85 119 89 96 108 83 85"/><polygon class="cls-3" points="73 82 66 110 39 86 73 82"/><polygon class="cls-3" points="58 70 47 47 30 72 58 70"/><polygon class="cls-3" points="59 20 54 42 90 33 59 20"/><polygon class="cls-3" points="100 21 120 48 143 0 100 21"/><polygon class="cls-3" points="84 6 100 21 143 0 84 6"/><polygon class="cls-3" points="143 0 120 48 135 87 143 0"/><polygon class="cls-3" points="112 120 135 87 143 133 112 120"/><polygon class="cls-3" points="77 122 112 120 143 133 77 122"/><polygon class="cls-3" points="35 110 77 122 0 133 35 110"/><polygon class="cls-3" points="18 67 35 110 0 133 18 67"/><polygon class="cls-3" points="18 67 49 6 0 32 18 67"/><polygon class="cls-3" points="84 6 49 6 72 0 84 6"/><polygon class="cls-3" points="135 87 143 133 143 0 135 87"/><polygon class="cls-3" points="72 0 84 6 143 0 72 0"/><polygon class="cls-3" points="49 6 0 0 72 0 49 6"/><polygon class="cls-3" points="0 32 0 0 49 6 0 32"/><polygon class="cls-3" points="0 133 18 67 0 32 0 133"/><polygon class="cls-3" points="143 133 77 122 0 133 143 133"/><line class="cls-4" x1="49" y1="6" x2="84" y2="6"/><line class="cls-4" x1="84" y1="6" x2="100" y2="21"/><line class="cls-4" x1="100" y1="21" x2="120" y2="48"/><line class="cls-4" x1="120" y1="48" x2="135" y2="87"/><line class="cls-4" x1="135" y1="87" x2="112" y2="120"/><line class="cls-5" x1="112" y1="120" x2="77" y2="122"/><line class="cls-4" x1="77" y1="122" x2="35" y2="110"/><line class="cls-4" x1="35" y1="110" x2="18" y2="67"/><line class="cls-4" x1="18" y1="67" x2="49" y2="6"/><line class="cls-4" x1="54" y1="42" x2="90" y2="33"/><line class="cls-6" x1="90" y1="33" x2="59" y2="20"/><line class="cls-4" x1="59" y1="20" x2="54" y2="42"/><line class="cls-4" x1="75" y1="70" x2="95" y2="45"/><line class="cls-4" x1="95" y1="45" x2="63" y2="49"/><line class="cls-4" x1="63" y1="49" x2="75" y2="70"/><line class="cls-4" x1="85" y1="75" x2="119" y2="77"/><line class="cls-6" x1="119" y1="77" x2="107" y2="47"/><line class="cls-4" x1="107" y1="47" x2="85" y2="75"/><line class="cls-4" x1="96" y1="108" x2="119" y2="89"/><line class="cls-4" x1="119" y1="89" x2="83" y2="85"/><line class="cls-4" x1="83" y1="85" x2="96" y2="108"/><line class="cls-6" x1="39" y1="86" x2="66" y2="110"/><line class="cls-4" x1="66" y1="110" x2="73" y2="82"/><line class="cls-4" x1="73" y1="82" x2="39" y2="86"/><line class="cls-4" x1="30" y1="72" x2="58" y2="70"/><line class="cls-4" x1="58" y1="70" x2="47" y2="47"/><line class="cls-6" x1="47" y1="47" x2="30" y2="72"/></g></g></svg>