<svg xmlns="http://www.w3.org/2000/svg" viewBox="0 0 238 153"><defs><style>.cls-1{fill:#fff;}.cls-2{fill:#f0f;}.cls-3{fill:blue;}.cls-4,.cls-5,.cls-6{fill:none;stroke-miterlimit:10;}.cls-4{stroke:#000;}.cls-5{stroke:lime;}.cls-6{stroke:red;}</style></defs><title>map3</title><g id="Layer_2" data-name="Layer 2"><g id="Layer_1-2" data-name="Layer 1"><rect class="cls-1" width="238" height="153"/><rect class="cls-2" x="32" y="81" width="1" height="1"/><polygon class="cls-3" points="39 72 53 72 54 46 39 72"/><polygon class="cls-3" points="54 46 173 48 53 41 54 46"/><polygon class="cls-3" points="173 48 172 67 193 67 173 48"/><polygon class="cls-3" points="176 90 191 89 174 107 176 90"/><polygon class="cls-3" points="174 107 54 112 173 113 174 107"/><polygon class="cls-3" points="54 112 54 94 43 94 54 112"/><polygon class="cls-3" points="48 117 43 94 54 112 48 117"/><polygon class="cls-3" points="48 117 185 117 173 113 48 117"/><polygon class="cls-3" points="54 112 48 117 173 113 54 112"/><polygon class="cls-3" points="191 89 185 117 173 113 191 89"/><polygon class="cls-3" points="174 107 173 113 191 89 174 107"/><polygon class="cls-3" points="193 67 186 37 173 48 193 67"/><polygon class="cls-3" points="53 41 186 37 173 48 53 41"/><polygon class="cls-3" points="41 40 39 72 54 46 41 40"/><polygon class="cls-3" points="53 41 41 40 54 46 53 41"/><polygon class="cls-3" points="22 17 225 18 223 0 22 17"/><polygon class="cls-3" points="22 140 22 17 0 135 22 140"/><polygon class="cls-3" points="22 140 227 135 238 153 22 140"/><polygon class="cls-3" points="108 69 108 90 118 90 108 69"/><polygon class="cls-3" points="119 68 108 69 118 90 119 68"/><polygon class="cls-3" points="225 18 227 135 238 153 225 18"/><polygon class="cls-3" points="238 153 238 0 225 18 238 153"/><polygon class="cls-3" points="223 0 238 0 225 18 223 0"/><polygon class="cls-3" points="223 0 16 0 22 17 223 0"/><polygon class="cls-3" points="16 0 0 135 22 17 16 0"/><polygon class="cls-3" points="0 135 0 0 16 0 0 135"/><polygon class="cls-3" points="22 140 0 153 0 135 22 140"/><polygon class="cls-3" points="0 153 22 140 238 153 0 153"/><line class="cls-4" x1="22" y1="17" x2="225" y2="18"/><line class="cls-4" x1="225" y1="18" x2="227" y2="135"/><line class="cls-4" x1="227" y1="135" x2="22" y2="140"/><line class="cls-4" x1="22" y1="140" x2="22" y2="17"/><line class="cls-5" x1="54" y1="46" x2="173" y2="48"/><line class="cls-5" x1="173" y1="48" x2="172" y2="67"/><line class="cls-4" x1="172" y1="67" x2="193" y2="67"/><line class="cls-4" x1="193" y1="67" x2="186" y2="37"/><line class="cls-4" x1="186" y1="37" x2="53" y2="41"/><line class="cls-4" x1="53" y1="41" x2="41" y2="40"/><line class="cls-4" x1="41" y1="40" x2="39" y2="72"/><line class="cls-4" x1="39" y1="72" x2="53" y2="72"/><line class="cls-5" x1="53" y1="72" x2="54" y2="46"/><line class="cls-4" x1="48" y1="117" x2="185" y2="117"/><line class="cls-4" x1="185" y1="117" x2="191" y2="89"/><line class="cls-4" x1="191" y1="89" x2="176" y2="90"/><line class="cls-5" x1="176" y1="90" x2="174" y2="107"/><line class="cls-5" x1="174" y1="107" x2="54" y2="112"/><line class="cls-5" x1="54" y1="112" x2="54" y2="94"/><line class="cls-4" x1="54" y1="94" x2="43" y2="94"/><line class="cls-4" x1="43" y1="94" x2="48" y2="117"/><line class="cls-4" x1="108" y1="90" x2="118" y2="90"/><line class="cls-4" x1="118" y1="90" x2="119" y2="68"/><line class="cls-4" x1="119" y1="68" x2="108" y2="69"/><line class="cls-6" x1="108" y1="69" x2="108" y2="90"/></g></g></svg>